<svg width="76" height="30" viewBox="0 0 76 30" fill="none" xmlns="http://www.w3.org/2000/svg">
<path d="M74.4476 5.31218C72.8849 4.11216 70.0801 5.35789 66.5536 8.82081C66.5257 8.8475 66.4993 8.87585 66.4747 8.90572C63.8423 12.0715 54.1876 18.3557 47.7113 19.83L47.6743 19.8382C44.1897 20.7541 42.8558 20.6806 42.4047 20.5859C42.5658 20.212 43.0571 19.5231 43.8868 18.7524C45.9698 16.8161 48.222 14.354 47.1314 12.4846C46.2115 10.9106 43.5034 10.091 30.037 14.7197C23.7235 16.8895 17.1361 15.3483 10.4585 10.1368C7.28275 7.6239 4.46763 4.67529 2.09413 1.37578C1.95846 1.1683 1.76041 1.01067 1.52937 0.92626C1.29833 0.841852 1.04659 0.835166 0.8115 0.907192C0.576411 0.979218 0.370489 1.12612 0.22428 1.32611C0.0780701 1.5261 -0.000640215 1.76852 -0.00017646 2.01742C-0.0079986 2.18082 0.0246784 2.34359 0.0948728 2.4909C2.77789 9.89169 7.46215 16.3777 13.6118 21.207C19.7615 26.0363 27.1282 29.0139 34.8693 29.7991C42.6105 30.5844 50.4134 29.1456 57.3855 25.6473C64.3576 22.1491 70.2174 16.7326 74.2945 10.0176C74.2966 10.0124 74.2993 10.0074 74.3026 10.0029L74.5893 9.51307L74.6135 9.47062C75.5688 7.6812 75.506 6.12526 74.4476 5.31218ZM72.6158 8.35223L72.3452 8.80939C65.1521 20.63 52.6909 27.6848 38.9974 27.6848C25.465 27.6848 13.0264 20.5402 5.9396 9.27144C7.24596 10.5202 8.63171 11.6808 10.0879 12.7458C13.1633 14.9793 16.2951 16.5189 19.3995 17.3173C23.1465 18.3191 27.102 18.1777 30.77 16.9108C42.0116 13.0478 44.5908 13.4593 45.1079 13.6699C45.0274 13.9785 44.5989 14.9499 42.3418 17.0479C40.9499 18.3394 39.4646 20.2023 40.2878 21.7386C41.111 23.275 43.3987 23.3501 48.2285 22.0831C55.2025 20.4896 65.2407 13.9295 68.1791 10.4437C70.9291 7.7563 72.4982 7.17833 73.0025 7.17833C72.9993 7.36609 72.9268 7.76284 72.6158 8.35223Z" fill="white"/>
</svg>
