<svg width="76" height="30" viewBox="0 0 76 30" fill="none" xmlns="http://www.w3.org/2000/svg">
<path d="M75.9046 27.514C73.2231 20.112 68.5397 13.6245 62.3902 8.79382C56.2408 3.96318 48.8737 0.984542 41.132 0.198728C33.3904 -0.587086 25.5868 0.85167 18.6142 4.35037C11.6416 7.84906 5.78165 13.2664 1.70492 19.9824L1.69686 19.9955L1.4101 20.4853L1.38594 20.5294C0.430614 22.3253 0.491832 23.8764 1.54704 24.6894C3.10971 25.8895 5.91447 24.6454 9.44096 21.1824C9.46935 21.1556 9.49573 21.1267 9.5199 21.0959C12.1603 17.9269 21.8151 11.6427 28.2865 10.17L28.3235 10.1602C31.8081 9.24588 33.1421 9.31935 33.5931 9.41405C33.432 9.78793 32.9407 10.4769 32.1126 11.2459C30.028 13.1823 27.7758 15.6444 28.8681 17.5154C29.7879 19.0893 32.4944 19.9089 45.9608 15.2803C52.2743 13.1104 58.8617 14.6517 65.541 19.8616C68.7169 22.3743 71.5316 25.3236 73.9037 28.6242C74.0083 28.782 74.1495 28.9115 74.3149 29.0011C74.4804 29.0908 74.665 29.138 74.8526 29.1385C74.9195 29.1382 74.9864 29.1322 75.0523 29.1206C75.3172 29.0732 75.557 28.9326 75.7294 28.7234C75.9018 28.5143 75.9958 28.2502 75.9948 27.9777C76.0029 27.8179 75.9719 27.6586 75.9046 27.514ZM65.9083 17.2526C62.8345 15.0207 59.7011 13.4811 56.5983 12.6794C52.8525 11.6792 48.8988 11.8217 45.2326 13.0892C33.9911 16.9522 31.4135 16.5407 30.8947 16.3301C30.9753 16.0215 31.4038 15.0501 33.6608 12.9521C35.0527 11.659 36.5364 9.7961 35.7132 8.26137C34.89 6.72665 32.6024 6.64828 27.7726 7.91688C20.8002 9.51038 10.7604 16.0689 7.82673 19.5547C5.07675 22.2421 3.50763 22.82 3.00339 22.82C3.00339 22.6274 3.07749 22.2323 3.39003 21.6412L3.65907 21.1857C10.8538 9.36506 23.3133 2.3086 37.0069 2.3086C50.5393 2.3086 62.9762 9.45323 70.0631 20.7237C68.7552 19.475 67.3672 18.3155 65.9083 17.2526Z" fill="white"/>
</svg>
