<svg width="52" height="44" viewBox="0 0 52 44" fill="none" xmlns="http://www.w3.org/2000/svg">
<path d="M1.02364 21.88C0.887194 22.115 0.836939 22.3912 0.881735 22.66C0.926531 22.9288 1.0635 23.1729 1.26851 23.3494C8.9224 29.9177 10.7509 40.3685 11.0393 42.3963C11.0783 42.6714 11.2138 42.9231 11.4208 43.1054C11.6279 43.2876 11.8927 43.3883 12.167 43.389C12.2209 43.3884 12.2747 43.3841 12.3281 43.3759C12.627 43.3323 12.8966 43.1703 13.0778 42.9254C13.259 42.6805 13.337 42.3729 13.2947 42.0698C12.9402 39.5783 11.5129 32.1284 6.61222 25.707C9.61513 27.1977 12.6019 29.1651 15.3616 32.2068C18.3129 35.6648 20.1092 40.811 20.1269 40.86C20.1748 41.0051 20.2506 41.1392 20.35 41.2544C20.4494 41.3697 20.5704 41.4637 20.706 41.5312C20.8415 41.5986 20.989 41.6382 21.1397 41.6474C21.2904 41.6567 21.4415 41.6355 21.5841 41.5851C21.7267 41.5348 21.858 41.4562 21.9704 41.354C22.0828 41.2518 22.1741 41.128 22.2389 40.9897C22.3037 40.8515 22.3408 40.7016 22.348 40.5487C22.3552 40.3958 22.3324 40.243 22.2808 40.0992C22.2051 39.8771 20.4201 34.7554 17.3254 30.979C17.0902 27.6271 16.2637 20.9331 13.3817 14.7387C16.0217 17.2153 18.3189 20.0426 20.2107 23.1437L20.2316 23.1813C22.1312 26.3122 23.6502 29.6645 24.7553 33.1651V33.1766V33.1929C25.2386 34.7162 25.8218 37.2158 26.2053 39.0477C26.2598 39.3068 26.4004 39.5391 26.6036 39.7058C26.8068 39.8725 27.0603 39.9635 27.3217 39.9636C27.4018 39.9635 27.4816 39.9553 27.5601 39.9391C27.8562 39.8749 28.1151 39.6943 28.28 39.4369C28.4448 39.1795 28.5023 38.8663 28.4397 38.5661C28.0724 36.8224 27.5295 34.4843 27.0462 32.8647C28.2642 29.4132 29.8903 26.1238 31.8889 23.0686L31.9775 22.9364C33.8955 20.0178 36.1882 17.3708 38.7953 15.0652C35.6216 21.4327 34.6598 28.3944 34.3763 31.5945V31.6108C34.3763 31.619 34.3763 31.6288 34.3763 31.6369C34.1008 36.9497 35.1657 40.6526 35.2108 40.8077C35.3061 41.0899 35.5053 41.3239 35.7667 41.4609C36.0281 41.5979 36.3315 41.6273 36.6139 41.5431C36.8962 41.4589 37.1355 41.2675 37.282 41.0088C37.4285 40.7502 37.4708 40.4442 37.4001 40.1547C37.3905 40.122 36.4625 36.8566 36.6365 32.1986C39.0751 29.685 41.8824 27.5686 44.959 25.9242C43.1417 28.4108 41.774 31.3692 40.9218 34.695C39.8537 38.8763 39.9793 42.1465 39.9858 42.2837C39.9986 42.5811 40.1243 42.8621 40.3364 43.068C40.5486 43.2739 40.831 43.3889 41.1248 43.389H41.1763C41.4788 43.3755 41.7635 43.2407 41.968 43.0145C42.1726 42.7883 42.2801 42.489 42.267 42.1825C42.267 42.0616 41.8465 29.9814 50.6539 23.4066C50.8742 23.2422 51.029 23.0031 51.0901 22.7328C51.1511 22.4625 51.1144 22.1789 50.9866 21.9337C50.8588 21.6885 50.6484 21.498 50.3937 21.3967C50.139 21.2955 49.8568 21.2903 49.5986 21.3821C44.7076 23.1209 40.6527 25.4638 37.0538 28.6442C37.7835 23.9095 39.5685 16.6554 43.9054 11.3019C44.0765 11.092 44.1692 10.8277 44.1669 10.5555C44.1646 10.2833 44.0676 10.0206 43.893 9.81372C43.7183 9.60686 43.4772 9.46911 43.2122 9.42475C42.9472 9.38039 42.6752 9.43225 42.4442 9.57121C39.5186 11.3051 35.3815 14.4317 31.4636 19.6971C29.5835 13.0701 29.3483 9.14182 31.085 2.17678C31.1461 1.93018 31.1254 1.67004 31.0261 1.43654C30.9268 1.20305 30.7544 1.00918 30.5355 0.884899C30.3166 0.760613 30.0635 0.712818 29.8151 0.748897C29.5668 0.784977 29.3371 0.902923 29.1614 1.08452C23.1701 7.28872 20.9614 13.8929 20.3009 19.1355C16.6246 14.0235 12.7066 10.9035 9.88739 9.12059C9.65992 8.97735 9.39001 8.91967 9.12483 8.95763C8.85966 8.99559 8.61607 9.12677 8.43664 9.32826C8.25721 9.52975 8.15335 9.78872 8.1432 10.0599C8.13304 10.3312 8.21725 10.5974 8.3811 10.8121C12.5923 16.3044 14.1807 23.6384 14.7784 28.3928C10.7654 24.8107 6.48978 22.9641 2.40749 21.387C2.15648 21.2907 1.88 21.2874 1.62682 21.3777C1.37364 21.4679 1.16002 21.6458 1.02364 21.88ZM29.7962 22.1119C28.2823 24.4609 26.9791 26.9427 25.9024 29.5275C24.9287 27.0061 23.743 24.5743 22.3582 22.2588C22.4661 17.9355 23.6131 11.9729 27.9693 6.04788C27.1461 11.5468 27.8469 15.666 29.7962 22.1119Z" fill="white"/>
</svg>
